<svg width="26" height="26" viewBox="0 0 26 26" fill="none" xmlns="http://www.w3.org/2000/svg">
<path d="M16.354 6.39606C15.7023 5.73231 14.9256 5.20425 14.0687 4.84237C13.2119 4.4805 12.2918 4.29198 11.3616 4.28771C10.4314 4.28343 9.50965 4.46349 8.64946 4.81747C7.78928 5.17146 7.00776 5.69236 6.35003 6.35009C5.6923 7.00782 5.1714 7.78934 4.81741 8.64952C4.46343 9.5097 4.28337 10.4315 4.28765 11.3617C4.29192 12.2918 4.48044 13.2119 4.84232 14.0688C5.20419 14.9257 5.73225 15.7024 6.396 16.3541C7.72065 17.6546 9.50526 18.3794 11.3616 18.3709C13.2179 18.3624 14.9958 17.6212 16.3085 16.3085C17.6211 14.9959 18.3623 13.218 18.3708 11.3617C18.3794 9.50532 17.6545 7.72071 16.354 6.39606ZM4.86416 4.86422C6.52472 3.20408 8.75675 2.24101 11.1038 2.17196C13.4509 2.1029 15.7357 2.93307 17.491 4.49271C19.2463 6.05235 20.3394 8.22363 20.5469 10.5625C20.7544 12.9014 20.0606 15.2312 18.6073 17.0756L24.3977 22.866L22.8659 24.3978L17.0755 18.6074C15.2306 20.0553 12.9028 20.7448 10.5669 20.5353C8.23102 20.3257 6.0631 19.2329 4.50534 17.4798C2.94758 15.7266 2.11737 13.4452 2.18405 11.1009C2.25073 8.75656 3.20928 6.52601 4.86416 4.86422Z" fill="white"/>
</svg>
