<svg width="26" height="26" viewBox="0 0 26 26" fill="none" xmlns="http://www.w3.org/2000/svg">
<path d="M13 4.33335C17.7786 4.33335 21.6667 8.22144 21.6667 13C21.6667 17.7786 17.7786 21.6667 13 21.6667C8.22141 21.6667 4.33333 17.7786 4.33333 13C4.33333 8.22144 8.22141 4.33335 13 4.33335ZM13 2.16669C7.01675 2.16669 2.16666 7.01677 2.16666 13C2.16666 18.9833 7.01675 23.8334 13 23.8334C18.9832 23.8334 23.8333 18.9833 23.8333 13C23.8333 7.01677 18.9832 2.16669 13 2.16669ZM18.4167 11.9167H14.0833V7.58335H11.9167V11.9167H7.58333V14.0834H11.9167V18.4167H14.0833V14.0834H18.4167V11.9167Z" fill="#359A57"/>
</svg>
