<svg width="30" height="30" viewBox="0 0 30 30" fill="none" xmlns="http://www.w3.org/2000/svg">
<path d="M10.2179 13.7692H9.44864V15.3077H10.2179V13.7692ZM19.4486 15.3077H20.2179V13.7692H19.4486V15.3077ZM16.3717 18.3846H15.6025V19.9231H16.3717V18.3846ZM19.4486 19.9231H20.2179V18.3846H19.4486V19.9231ZM10.2179 9.15385H9.44864V10.6923H10.2179V9.15385ZM13.2948 10.6923H14.064V9.15385H13.2948V10.6923ZM19.4486 3.76923L19.9933 3.22462L19.7671 3H19.4486V3.76923ZM24.064 8.38461H24.8333V8.06615L24.6086 7.84L24.064 8.38461ZM10.2179 15.3077H19.4486V13.7692H10.2179V15.3077ZM16.3717 19.9231H19.4486V18.3846H16.3717V19.9231ZM10.2179 10.6923H13.2948V9.15385H10.2179V10.6923ZM22.5256 24.5385H7.14094V26.0769H22.5256V24.5385ZM6.37171 23.7692V5.30769H4.83325V23.7692H6.37171ZM7.14094 4.53846H19.4486V3H7.14094V4.53846ZM23.2948 8.38461V23.7692H24.8333V8.38461H23.2948ZM18.904 4.31385L23.5194 8.92923L24.6086 7.84L19.9933 3.22462L18.904 4.31385ZM7.14094 24.5385C6.93693 24.5385 6.74127 24.4574 6.59702 24.3132C6.45276 24.1689 6.37171 23.9732 6.37171 23.7692H4.83325C4.83325 24.3813 5.07638 24.9682 5.50916 25.401C5.94194 25.8338 6.52891 26.0769 7.14094 26.0769V24.5385ZM22.5256 26.0769C23.1376 26.0769 23.7246 25.8338 24.1573 25.401C24.5901 24.9682 24.8333 24.3813 24.8333 23.7692H23.2948C23.2948 23.9732 23.2137 24.1689 23.0695 24.3132C22.9252 24.4574 22.7296 24.5385 22.5256 24.5385V26.0769ZM6.37171 5.30769C6.37171 5.10368 6.45276 4.90802 6.59702 4.76376C6.74127 4.61951 6.93693 4.53846 7.14094 4.53846V3C6.52891 3 5.94194 3.24313 5.50916 3.67591C5.07638 4.10868 4.83325 4.69565 4.83325 5.30769H6.37171Z" fill="#FF6C03"/>
</svg>
