<svg width="345" height="72" viewBox="0 0 345 72" fill="none" xmlns="http://www.w3.org/2000/svg">
<path d="M43 26.6666C48.1462 26.6666 52.3334 30.8538 52.3334 36C52.3334 41.1461 48.1462 45.3333 43 45.3333C37.8539 45.3333 33.6667 41.1461 33.6667 36C33.6667 30.8538 37.8539 26.6666 43 26.6666ZM43 24.3333C36.5565 24.3333 31.3334 29.5565 31.3334 36C31.3334 42.4435 36.5565 47.6666 43 47.6666C49.4435 47.6666 54.6667 42.4435 54.6667 36C54.6667 29.5565 49.4435 24.3333 43 24.3333ZM48.8334 34.8333H44.1667V30.1666H41.8334V34.8333H37.1667V37.1666H41.8334V41.8333H44.1667V37.1666H48.8334V34.8333Z" fill="#D2D3D3"/>
<path d="M0 0H86H0ZM87 73H16C6.61116 73 -1 65.3888 -1 56H1C1 64.2843 7.71573 71 16 71H85L87 73ZM16 73C6.61116 73 -1 65.3888 -1 56V0H1V56C1 64.2843 7.71573 71 16 71V73ZM87 0V73L85 71V0H87Z" fill="#D2D3D3" mask="url(#path-1-inside-1_24_1516)"/>
<path d="M162.5 26.6666C167.646 26.6666 171.833 30.8538 171.833 36C171.833 41.1461 167.646 45.3333 162.5 45.3333C157.354 45.3333 153.167 41.1461 153.167 36C153.167 30.8538 157.354 26.6666 162.5 26.6666ZM162.5 24.3333C156.057 24.3333 150.833 29.5565 150.833 36C150.833 42.4435 156.057 47.6666 162.5 47.6666C168.944 47.6666 174.167 42.4435 174.167 36C174.167 29.5565 168.944 24.3333 162.5 24.3333ZM168.333 34.8333H163.667V30.1666H161.333V34.8333H156.667V37.1666H161.333V41.8333H163.667V37.1666H168.333V34.8333Z" fill="#D2D3D3"/>
<path d="M239 72V73H240V72H239ZM238 0V72H240V0H238ZM239 71H86V73H239V71Z" fill="#D2D3D3" mask="url(#path-4-inside-2_24_1516)"/>
<path d="M292 26.6666C297.146 26.6666 301.333 30.8538 301.333 36C301.333 41.1461 297.146 45.3333 292 45.3333C286.854 45.3333 282.667 41.1461 282.667 36C282.667 30.8538 286.854 26.6666 292 26.6666ZM292 24.3333C285.556 24.3333 280.333 29.5565 280.333 36C280.333 42.4435 285.556 47.6666 292 47.6666C298.443 47.6666 303.667 42.4435 303.667 36C303.667 29.5565 298.443 24.3333 292 24.3333ZM297.833 34.8333H293.167V30.1666H290.833V34.8333H286.167V37.1666H290.833V41.8333H293.167V37.1666H297.833V34.8333Z" fill="#D2D3D3"/>
<path d="M239 0H345H239ZM346 56C346 65.3888 338.389 73 329 73H239V71H329C337.284 71 344 64.2843 344 56H346ZM239 72V0V72ZM346 0V56C346 65.3888 338.389 73 329 73V71C337.284 71 344 64.2843 344 56V0H346Z" fill="#D2D3D3" mask="url(#path-7-inside-3_24_1516)"/>
</svg>
