<svg width="30" height="30" viewBox="0 0 30 30" fill="none" xmlns="http://www.w3.org/2000/svg">
<path d="M8.10929 2.30769C6.18273 2.30807 4.61542 3.87563 4.61542 5.80207V23.4879C4.61542 25.4145 6.18273 26.982 8.10942 26.9823H24.6017C25.0342 26.9823 25.3846 26.6318 25.3846 26.1994V23.4879V20.7764V8.51355V3.0906C25.3846 2.65818 25.0342 2.30769 24.6017 2.30769H8.10929ZM8.10942 3.8735H23.8188V8.51355V19.9934H8.10929C7.39692 19.9935 6.73414 20.2084 6.18122 20.5758V5.80207C6.18122 4.73883 7.0463 3.87362 8.10942 3.8735ZM23.8188 25.4164H8.10954C7.0463 25.4162 6.18122 24.551 6.18122 23.4878C6.18122 22.4245 7.04617 21.5593 8.10942 21.5592H23.8188V22.7049H11.4916C11.0591 22.7049 10.7087 23.0554 10.7087 23.4878C10.7087 23.9202 11.0591 24.2707 11.4916 24.2707H23.8188V25.4164Z" fill="#797A7B"/>
<path d="M11.8692 13.2934V16.2577C11.8692 16.6901 12.2197 17.0406 12.6521 17.0406H17.3478C17.7802 17.0406 18.1307 16.6901 18.1307 16.2577V13.2935C19.1652 12.8783 19.8822 11.8639 19.8822 10.7044C19.8822 9.20942 18.7 7.98546 17.2215 7.91806C16.7003 7.22836 15.8882 6.81686 15.0001 6.81686C14.1116 6.81686 13.2996 7.22836 12.7785 7.91806C11.2999 7.98546 10.1178 9.20954 10.1178 10.7044C10.1178 11.864 10.8349 12.8783 11.8692 13.2934ZM12.9072 9.48099C12.9664 9.48099 13.0267 9.48537 13.0867 9.49414C13.4232 9.54387 13.7522 9.37063 13.9024 9.06599C14.1105 8.6446 14.5312 8.38267 15.0004 8.38267C15.4693 8.38267 15.8901 8.6446 16.0984 9.06624C16.2487 9.37088 16.5793 9.54362 16.9143 9.49414C16.9739 9.48537 17.034 9.48099 17.0933 9.48099C17.768 9.48099 18.3169 10.0299 18.3169 10.7046C18.3169 11.319 17.858 11.8406 17.2496 11.9178C16.8585 11.9674 16.5653 12.3002 16.5653 12.6944V15.4748H13.4351V12.7461C13.4351 12.7453 13.4352 12.7443 13.4352 12.7435C13.4611 12.331 13.1619 11.9694 12.7519 11.9176C12.1428 11.8408 11.6836 11.3194 11.6836 10.7044C11.6836 10.0298 12.2325 9.48099 12.9072 9.48099Z" fill="#797A7B"/>
</svg>
