<svg width="30" height="30" viewBox="0 0 30 30" fill="none" xmlns="http://www.w3.org/2000/svg">
<g style="mix-blend-mode:plus-darker">
<path d="M10.2179 13.7692H9.44869V15.3077H10.2179V13.7692ZM19.4487 15.3077H20.2179V13.7692H19.4487V15.3077ZM16.3718 18.3846H15.6025V19.9231H16.3718V18.3846ZM19.4487 19.9231H20.2179V18.3846H19.4487V19.9231ZM10.2179 9.15385H9.44869V10.6923H10.2179V9.15385ZM13.2948 10.6923H14.0641V9.15385H13.2948V10.6923ZM19.4487 3.76923L19.9933 3.22462L19.7672 3H19.4487V3.76923ZM24.0641 8.38461H24.8333V8.06615L24.6087 7.84L24.0641 8.38461ZM10.2179 15.3077H19.4487V13.7692H10.2179V15.3077ZM16.3718 19.9231H19.4487V18.3846H16.3718V19.9231ZM10.2179 10.6923H13.2948V9.15385H10.2179V10.6923ZM22.5256 24.5385H7.141V26.0769H22.5256V24.5385ZM6.37177 23.7692V5.30769H4.83331V23.7692H6.37177ZM7.141 4.53846H19.4487V3H7.141V4.53846ZM23.2948 8.38461V23.7692H24.8333V8.38461H23.2948ZM18.9041 4.31385L23.5195 8.92923L24.6087 7.84L19.9933 3.22462L18.9041 4.31385ZM7.141 24.5385C6.93699 24.5385 6.74133 24.4574 6.59707 24.3132C6.45281 24.1689 6.37177 23.9732 6.37177 23.7692H4.83331C4.83331 24.3813 5.07644 24.9682 5.50922 25.401C5.94199 25.8338 6.52896 26.0769 7.141 26.0769V24.5385ZM22.5256 26.0769C23.1377 26.0769 23.7246 25.8338 24.1574 25.401C24.5902 24.9682 24.8333 24.3813 24.8333 23.7692H23.2948C23.2948 23.9732 23.2138 24.1689 23.0695 24.3132C22.9253 24.4574 22.7296 24.5385 22.5256 24.5385V26.0769ZM6.37177 5.30769C6.37177 5.10368 6.45281 4.90802 6.59707 4.76376C6.74133 4.61951 6.93699 4.53846 7.141 4.53846V3C6.52896 3 5.94199 3.24313 5.50922 3.67591C5.07644 4.10868 4.83331 4.69565 4.83331 5.30769H6.37177Z" fill="#57595A"/>
</g>
</svg>
